<svg width="58" height="58" viewBox="0 0 58 58" fill="none" xmlns="http://www.w3.org/2000/svg">
<path d="M42 5.5C42 5.24718 41.9764 4.99977 41.9314 4.75986L42.0824 5.5L41.9314 6.24014C41.9764 6.00023 42 5.75282 42 5.5ZM16.242 4.16438L16.1405 4.44922C16.5398 2.98576 17.7522 1.85387 19.257 1.56937C17.8473 1.83631 16.7109 2.84836 16.242 4.16438Z" stroke="#5C9506" stroke-width="2"/>
<mask id="path-2-inside-1" fill="white">
<path d="M26 2.5C27.654 2.5 29 3.846 29 5.5C29 7.154 27.654 8.5 26 8.5C25.447 8.5 25 8.947 25 9.5C25 10.053 25.447 10.5 26 10.5C28.757 10.5 31 8.257 31 5.5C31 2.743 28.757 0.5 26 0.5C25.447 0.5 25 0.947 25 1.5C25 2.053 25.447 2.5 26 2.5Z"/>
</mask>
<path d="M26 4.5C26.5494 4.5 27 4.95057 27 5.5H31C31 2.74143 28.7586 0.5 26 0.5V4.5ZM27 5.5C27 6.04943 26.5494 6.5 26 6.5V10.5C28.7586 10.5 31 8.25857 31 5.5H27ZM26 6.5C24.3424 6.5 23 7.84243 23 9.5H27C27 10.0516 26.5516 10.5 26 10.5V6.5ZM23 9.5C23 11.1576 24.3424 12.5 26 12.5V8.5C26.5516 8.5 27 8.94843 27 9.5H23ZM26 12.5C29.8616 12.5 33 9.36157 33 5.5H29C29 7.15243 27.6524 8.5 26 8.5V12.5ZM33 5.5C33 1.63843 29.8616 -1.5 26 -1.5V2.5C27.6524 2.5 29 3.84757 29 5.5H33ZM26 -1.5C24.3424 -1.5 23 -0.157569 23 1.5H27C27 2.05157 26.5516 2.5 26 2.5V-1.5ZM23 1.5C23 3.15757 24.3424 4.5 26 4.5V0.5C26.5516 0.5 27 0.94843 27 1.5H23Z" fill="#5C9506" mask="url(#path-2-inside-1)"/>
<mask id="path-4-inside-2" fill="white">
<path d="M32 2.5C33.654 2.5 35 3.846 35 5.5C35 7.154 33.654 8.5 32 8.5C31.447 8.5 31 8.947 31 9.5C31 10.053 31.447 10.5 32 10.5C34.757 10.5 37 8.257 37 5.5C37 2.743 34.757 0.5 32 0.5C31.447 0.5 31 0.947 31 1.5C31 2.053 31.447 2.5 32 2.5Z"/>
</mask>
<path d="M32 4.5C32.5494 4.5 33 4.95057 33 5.5H37C37 2.74143 34.7586 0.5 32 0.5V4.5ZM33 5.5C33 6.04943 32.5494 6.5 32 6.5V10.5C34.7586 10.5 37 8.25857 37 5.5H33ZM32 6.5C30.3424 6.5 29 7.84243 29 9.5H33C33 10.0516 32.5516 10.5 32 10.5V6.5ZM29 9.5C29 11.1576 30.3424 12.5 32 12.5V8.5C32.5516 8.5 33 8.94843 33 9.5H29ZM32 12.5C35.8616 12.5 39 9.36157 39 5.5H35C35 7.15243 33.6524 8.5 32 8.5V12.5ZM39 5.5C39 1.63843 35.8616 -1.5 32 -1.5V2.5C33.6524 2.5 35 3.84757 35 5.5H39ZM32 -1.5C30.3424 -1.5 29 -0.157569 29 1.5H33C33 2.05157 32.5516 2.5 32 2.5V-1.5ZM29 1.5C29 3.15757 30.3424 4.5 32 4.5V0.5C32.5516 0.5 33 0.94843 33 1.5H29Z" fill="#5C9506" mask="url(#path-4-inside-2)"/>
<mask id="path-6-inside-3" fill="white">
<path d="M22 25.5C22.5523 25.5 23 25.0523 23 24.5C23 23.9477 22.5523 23.5 22 23.5C21.4477 23.5 21 23.9477 21 24.5C21 25.0523 21.4477 25.5 22 25.5Z"/>
</mask>
<path d="M21 24.5C21 23.9477 21.4477 23.5 22 23.5V27.5C23.6569 27.5 25 26.1569 25 24.5H21ZM22 23.5C22.5523 23.5 23 23.9477 23 24.5H19C19 26.1569 20.3431 27.5 22 27.5V23.5ZM23 24.5C23 25.0523 22.5523 25.5 22 25.5V21.5C20.3431 21.5 19 22.8431 19 24.5H23ZM22 25.5C21.4477 25.5 21 25.0523 21 24.5H25C25 22.8431 23.6569 21.5 22 21.5V25.5Z" fill="#5C9506" mask="url(#path-6-inside-3)"/>
<mask id="path-8-inside-4" fill="white">
<path d="M29 25.5C29.5523 25.5 30 25.0523 30 24.5C30 23.9477 29.5523 23.5 29 23.5C28.4477 23.5 28 23.9477 28 24.5C28 25.0523 28.4477 25.5 29 25.5Z"/>
</mask>
<path d="M28 24.5C28 23.9477 28.4477 23.5 29 23.5V27.5C30.6569 27.5 32 26.1569 32 24.5H28ZM29 23.5C29.5523 23.5 30 23.9477 30 24.5H26C26 26.1569 27.3431 27.5 29 27.5V23.5ZM30 24.5C30 25.0523 29.5523 25.5 29 25.5V21.5C27.3431 21.5 26 22.8431 26 24.5H30ZM29 25.5C28.4477 25.5 28 25.0523 28 24.5H32C32 22.8431 30.6569 21.5 29 21.5V25.5Z" fill="#5C9506" mask="url(#path-8-inside-4)"/>
<mask id="path-10-inside-5" fill="white">
<path d="M36 25.5C36.5523 25.5 37 25.0523 37 24.5C37 23.9477 36.5523 23.5 36 23.5C35.4477 23.5 35 23.9477 35 24.5C35 25.0523 35.4477 25.5 36 25.5Z"/>
</mask>
<path d="M35 24.5C35 23.9477 35.4477 23.5 36 23.5V27.5C37.6569 27.5 39 26.1569 39 24.5H35ZM36 23.5C36.5523 23.5 37 23.9477 37 24.5H33C33 26.1569 34.3431 27.5 36 27.5V23.5ZM37 24.5C37 25.0523 36.5523 25.5 36 25.5V21.5C34.3431 21.5 33 22.8431 33 24.5H37ZM36 25.5C35.4477 25.5 35 25.0523 35 24.5H39C39 22.8431 37.6569 21.5 36 21.5V25.5Z" fill="#5C9506" mask="url(#path-10-inside-5)"/>
<mask id="path-12-inside-6" fill="white">
<path d="M43 25.5C43.5523 25.5 44 25.0523 44 24.5C44 23.9477 43.5523 23.5 43 23.5C42.4477 23.5 42 23.9477 42 24.5C42 25.0523 42.4477 25.5 43 25.5Z"/>
</mask>
<path d="M42 24.5C42 23.9477 42.4477 23.5 43 23.5V27.5C44.6569 27.5 46 26.1569 46 24.5H42ZM43 23.5C43.5523 23.5 44 23.9477 44 24.5H40C40 26.1569 41.3431 27.5 43 27.5V23.5ZM44 24.5C44 25.0523 43.5523 25.5 43 25.5V21.5C41.3431 21.5 40 22.8431 40 24.5H44ZM43 25.5C42.4477 25.5 42 25.0523 42 24.5H46C46 22.8431 44.6569 21.5 43 21.5V25.5Z" fill="#5C9506" mask="url(#path-12-inside-6)"/>
<mask id="path-14-inside-7" fill="white">
<path d="M50 25.5C50.5523 25.5 51 25.0523 51 24.5C51 23.9477 50.5523 23.5 50 23.5C49.4477 23.5 49 23.9477 49 24.5C49 25.0523 49.4477 25.5 50 25.5Z"/>
</mask>
<path d="M49 24.5C49 23.9477 49.4477 23.5 50 23.5V27.5C51.6569 27.5 53 26.1569 53 24.5H49ZM50 23.5C50.5523 23.5 51 23.9477 51 24.5H47C47 26.1569 48.3431 27.5 50 27.5V23.5ZM51 24.5C51 25.0523 50.5523 25.5 50 25.5V21.5C48.3431 21.5 47 22.8431 47 24.5H51ZM50 25.5C49.4477 25.5 49 25.0523 49 24.5H53C53 22.8431 51.6569 21.5 50 21.5V25.5Z" fill="#5C9506" mask="url(#path-14-inside-7)"/>
<mask id="path-16-inside-8" fill="white">
<path d="M8 33.5C8.55228 33.5 9 33.0523 9 32.5C9 31.9477 8.55228 31.5 8 31.5C7.44772 31.5 7 31.9477 7 32.5C7 33.0523 7.44772 33.5 8 33.5Z"/>
</mask>
<path d="M7 32.5C7 31.9477 7.44772 31.5 8 31.5V35.5C9.65685 35.5 11 34.1569 11 32.5H7ZM8 31.5C8.55228 31.5 9 31.9477 9 32.5H5C5 34.1569 6.34315 35.5 8 35.5V31.5ZM9 32.5C9 33.0523 8.55228 33.5 8 33.5V29.5C6.34315 29.5 5 30.8431 5 32.5H9ZM8 33.5C7.44772 33.5 7 33.0523 7 32.5H11C11 30.8431 9.65685 29.5 8 29.5V33.5Z" fill="#5C9506" mask="url(#path-16-inside-8)"/>
<mask id="path-18-inside-9" fill="white">
<path d="M15 33.5C15.5523 33.5 16 33.0523 16 32.5C16 31.9477 15.5523 31.5 15 31.5C14.4477 31.5 14 31.9477 14 32.5C14 33.0523 14.4477 33.5 15 33.5Z"/>
</mask>
<path d="M14 32.5C14 31.9477 14.4477 31.5 15 31.5V35.5C16.6569 35.5 18 34.1569 18 32.5H14ZM15 31.5C15.5523 31.5 16 31.9477 16 32.5H12C12 34.1569 13.3431 35.5 15 35.5V31.5ZM16 32.5C16 33.0523 15.5523 33.5 15 33.5V29.5C13.3431 29.5 12 30.8431 12 32.5H16ZM15 33.5C14.4477 33.5 14 33.0523 14 32.5H18C18 30.8431 16.6569 29.5 15 29.5V33.5Z" fill="#5C9506" mask="url(#path-18-inside-9)"/>
<mask id="path-20-inside-10" fill="white">
<path d="M22 33.5C22.5523 33.5 23 33.0523 23 32.5C23 31.9477 22.5523 31.5 22 31.5C21.4477 31.5 21 31.9477 21 32.5C21 33.0523 21.4477 33.5 22 33.5Z"/>
</mask>
<path d="M21 32.5C21 31.9477 21.4477 31.5 22 31.5V35.5C23.6569 35.5 25 34.1569 25 32.5H21ZM22 31.5C22.5523 31.5 23 31.9477 23 32.5H19C19 34.1569 20.3431 35.5 22 35.5V31.5ZM23 32.5C23 33.0523 22.5523 33.5 22 33.5V29.5C20.3431 29.5 19 30.8431 19 32.5H23ZM22 33.5C21.4477 33.5 21 33.0523 21 32.5H25C25 30.8431 23.6569 29.5 22 29.5V33.5Z" fill="#5C9506" mask="url(#path-20-inside-10)"/>
<mask id="path-22-inside-11" fill="white">
<path d="M29 33.5C29.5523 33.5 30 33.0523 30 32.5C30 31.9477 29.5523 31.5 29 31.5C28.4477 31.5 28 31.9477 28 32.5C28 33.0523 28.4477 33.5 29 33.5Z"/>
</mask>
<path d="M28 32.5C28 31.9477 28.4477 31.5 29 31.5V35.5C30.6569 35.5 32 34.1569 32 32.5H28ZM29 31.5C29.5523 31.5 30 31.9477 30 32.5H26C26 34.1569 27.3431 35.5 29 35.5V31.5ZM30 32.5C30 33.0523 29.5523 33.5 29 33.5V29.5C27.3431 29.5 26 30.8431 26 32.5H30ZM29 33.5C28.4477 33.5 28 33.0523 28 32.5H32C32 30.8431 30.6569 29.5 29 29.5V33.5Z" fill="#5C9506" mask="url(#path-22-inside-11)"/>
<mask id="path-24-inside-12" fill="white">
<path d="M36 33.5C36.5523 33.5 37 33.0523 37 32.5C37 31.9477 36.5523 31.5 36 31.5C35.4477 31.5 35 31.9477 35 32.5C35 33.0523 35.4477 33.5 36 33.5Z"/>
</mask>
<path d="M35 32.5C35 31.9477 35.4477 31.5 36 31.5V35.5C37.6569 35.5 39 34.1569 39 32.5H35ZM36 31.5C36.5523 31.5 37 31.9477 37 32.5H33C33 34.1569 34.3431 35.5 36 35.5V31.5ZM37 32.5C37 33.0523 36.5523 33.5 36 33.5V29.5C34.3431 29.5 33 30.8431 33 32.5H37ZM36 33.5C35.4477 33.5 35 33.0523 35 32.5H39C39 30.8431 37.6569 29.5 36 29.5V33.5Z" fill="#5C9506" mask="url(#path-24-inside-12)"/>
<mask id="path-26-inside-13" fill="white">
<path d="M43 33.5C43.5523 33.5 44 33.0523 44 32.5C44 31.9477 43.5523 31.5 43 31.5C42.4477 31.5 42 31.9477 42 32.5C42 33.0523 42.4477 33.5 43 33.5Z"/>
</mask>
<path d="M42 32.5C42 31.9477 42.4477 31.5 43 31.5V35.5C44.6569 35.5 46 34.1569 46 32.5H42ZM43 31.5C43.5523 31.5 44 31.9477 44 32.5H40C40 34.1569 41.3431 35.5 43 35.5V31.5ZM44 32.5C44 33.0523 43.5523 33.5 43 33.5V29.5C41.3431 29.5 40 30.8431 40 32.5H44ZM43 33.5C42.4477 33.5 42 33.0523 42 32.5H46C46 30.8431 44.6569 29.5 43 29.5V33.5Z" fill="#5C9506" mask="url(#path-26-inside-13)"/>
<mask id="path-28-inside-14" fill="white">
<path d="M50 33.5C50.5523 33.5 51 33.0523 51 32.5C51 31.9477 50.5523 31.5 50 31.5C49.4477 31.5 49 31.9477 49 32.5C49 33.0523 49.4477 33.5 50 33.5Z"/>
</mask>
<path d="M49 32.5C49 31.9477 49.4477 31.5 50 31.5V35.5C51.6569 35.5 53 34.1569 53 32.5H49ZM50 31.5C50.5523 31.5 51 31.9477 51 32.5H47C47 34.1569 48.3431 35.5 50 35.5V31.5ZM51 32.5C51 33.0523 50.5523 33.5 50 33.5V29.5C48.3431 29.5 47 30.8431 47 32.5H51ZM50 33.5C49.4477 33.5 49 33.0523 49 32.5H53C53 30.8431 51.6569 29.5 50 29.5V33.5Z" fill="#5C9506" mask="url(#path-28-inside-14)"/>
<mask id="path-30-inside-15" fill="white">
<path d="M8 40.5C8.55228 40.5 9 40.0523 9 39.5C9 38.9477 8.55228 38.5 8 38.5C7.44772 38.5 7 38.9477 7 39.5C7 40.0523 7.44772 40.5 8 40.5Z"/>
</mask>
<path d="M7 39.5C7 38.9477 7.44772 38.5 8 38.5V42.5C9.65685 42.5 11 41.1569 11 39.5H7ZM8 38.5C8.55228 38.5 9 38.9477 9 39.5H5C5 41.1569 6.34315 42.5 8 42.5V38.5ZM9 39.5C9 40.0523 8.55228 40.5 8 40.5V36.5C6.34315 36.5 5 37.8431 5 39.5H9ZM8 40.5C7.44772 40.5 7 40.0523 7 39.5H11C11 37.8431 9.65685 36.5 8 36.5V40.5Z" fill="#5C9506" mask="url(#path-30-inside-15)"/>
<mask id="path-32-inside-16" fill="white">
<path d="M15 40.5C15.5523 40.5 16 40.0523 16 39.5C16 38.9477 15.5523 38.5 15 38.5C14.4477 38.5 14 38.9477 14 39.5C14 40.0523 14.4477 40.5 15 40.5Z"/>
</mask>
<path d="M14 39.5C14 38.9477 14.4477 38.5 15 38.5V42.5C16.6569 42.5 18 41.1569 18 39.5H14ZM15 38.5C15.5523 38.5 16 38.9477 16 39.5H12C12 41.1569 13.3431 42.5 15 42.5V38.5ZM16 39.5C16 40.0523 15.5523 40.5 15 40.5V36.5C13.3431 36.5 12 37.8431 12 39.5H16ZM15 40.5C14.4477 40.5 14 40.0523 14 39.5H18C18 37.8431 16.6569 36.5 15 36.5V40.5Z" fill="#5C9506" mask="url(#path-32-inside-16)"/>
<mask id="path-34-inside-17" fill="white">
<path d="M22 40.5C22.5523 40.5 23 40.0523 23 39.5C23 38.9477 22.5523 38.5 22 38.5C21.4477 38.5 21 38.9477 21 39.5C21 40.0523 21.4477 40.5 22 40.5Z"/>
</mask>
<path d="M21 39.5C21 38.9477 21.4477 38.5 22 38.5V42.5C23.6569 42.5 25 41.1569 25 39.5H21ZM22 38.5C22.5523 38.5 23 38.9477 23 39.5H19C19 41.1569 20.3431 42.5 22 42.5V38.5ZM23 39.5C23 40.0523 22.5523 40.5 22 40.5V36.5C20.3431 36.5 19 37.8431 19 39.5H23ZM22 40.5C21.4477 40.5 21 40.0523 21 39.5H25C25 37.8431 23.6569 36.5 22 36.5V40.5Z" fill="#5C9506" mask="url(#path-34-inside-17)"/>
<mask id="path-36-inside-18" fill="white">
<path d="M29 40.5C29.5523 40.5 30 40.0523 30 39.5C30 38.9477 29.5523 38.5 29 38.5C28.4477 38.5 28 38.9477 28 39.5C28 40.0523 28.4477 40.5 29 40.5Z"/>
</mask>
<path d="M28 39.5C28 38.9477 28.4477 38.5 29 38.5V42.5C30.6569 42.5 32 41.1569 32 39.5H28ZM29 38.5C29.5523 38.5 30 38.9477 30 39.5H26C26 41.1569 27.3431 42.5 29 42.5V38.5ZM30 39.5C30 40.0523 29.5523 40.5 29 40.5V36.5C27.3431 36.5 26 37.8431 26 39.5H30ZM29 40.5C28.4477 40.5 28 40.0523 28 39.5H32C32 37.8431 30.6569 36.5 29 36.5V40.5Z" fill="#5C9506" mask="url(#path-36-inside-18)"/>
<mask id="path-38-inside-19" fill="white">
<path d="M36 40.5C36.5523 40.5 37 40.0523 37 39.5C37 38.9477 36.5523 38.5 36 38.5C35.4477 38.5 35 38.9477 35 39.5C35 40.0523 35.4477 40.5 36 40.5Z"/>
</mask>
<path d="M35 39.5C35 38.9477 35.4477 38.5 36 38.5V42.5C37.6569 42.5 39 41.1569 39 39.5H35ZM36 38.5C36.5523 38.5 37 38.9477 37 39.5H33C33 41.1569 34.3431 42.5 36 42.5V38.5ZM37 39.5C37 40.0523 36.5523 40.5 36 40.5V36.5C34.3431 36.5 33 37.8431 33 39.5H37ZM36 40.5C35.4477 40.5 35 40.0523 35 39.5H39C39 37.8431 37.6569 36.5 36 36.5V40.5Z" fill="#5C9506" mask="url(#path-38-inside-19)"/>
<mask id="path-40-inside-20" fill="white">
<path d="M43 40.5C43.5523 40.5 44 40.0523 44 39.5C44 38.9477 43.5523 38.5 43 38.5C42.4477 38.5 42 38.9477 42 39.5C42 40.0523 42.4477 40.5 43 40.5Z"/>
</mask>
<path d="M42 39.5C42 38.9477 42.4477 38.5 43 38.5V42.5C44.6569 42.5 46 41.1569 46 39.5H42ZM43 38.5C43.5523 38.5 44 38.9477 44 39.5H40C40 41.1569 41.3431 42.5 43 42.5V38.5ZM44 39.5C44 40.0523 43.5523 40.5 43 40.5V36.5C41.3431 36.5 40 37.8431 40 39.5H44ZM43 40.5C42.4477 40.5 42 40.0523 42 39.5H46C46 37.8431 44.6569 36.5 43 36.5V40.5Z" fill="#5C9506" mask="url(#path-40-inside-20)"/>
<mask id="path-42-inside-21" fill="white">
<path d="M50 40.5C50.5523 40.5 51 40.0523 51 39.5C51 38.9477 50.5523 38.5 50 38.5C49.4477 38.5 49 38.9477 49 39.5C49 40.0523 49.4477 40.5 50 40.5Z"/>
</mask>
<path d="M49 39.5C49 38.9477 49.4477 38.5 50 38.5V42.5C51.6569 42.5 53 41.1569 53 39.5H49ZM50 38.5C50.5523 38.5 51 38.9477 51 39.5H47C47 41.1569 48.3431 42.5 50 42.5V38.5ZM51 39.5C51 40.0523 50.5523 40.5 50 40.5V36.5C48.3431 36.5 47 37.8431 47 39.5H51ZM50 40.5C49.4477 40.5 49 40.0523 49 39.5H53C53 37.8431 51.6569 36.5 50 36.5V40.5Z" fill="#5C9506" mask="url(#path-42-inside-21)"/>
<mask id="path-44-inside-22" fill="white">
<path d="M8 48.5C8.55228 48.5 9 48.0523 9 47.5C9 46.9477 8.55228 46.5 8 46.5C7.44772 46.5 7 46.9477 7 47.5C7 48.0523 7.44772 48.5 8 48.5Z"/>
</mask>
<path d="M7 47.5C7 46.9477 7.44772 46.5 8 46.5V50.5C9.65685 50.5 11 49.1569 11 47.5H7ZM8 46.5C8.55228 46.5 9 46.9477 9 47.5H5C5 49.1569 6.34315 50.5 8 50.5V46.5ZM9 47.5C9 48.0523 8.55228 48.5 8 48.5V44.5C6.34315 44.5 5 45.8431 5 47.5H9ZM8 48.5C7.44772 48.5 7 48.0523 7 47.5H11C11 45.8431 9.65685 44.5 8 44.5V48.5Z" fill="#5C9506" mask="url(#path-44-inside-22)"/>
<mask id="path-46-inside-23" fill="white">
<path d="M15 48.5C15.5523 48.5 16 48.0523 16 47.5C16 46.9477 15.5523 46.5 15 46.5C14.4477 46.5 14 46.9477 14 47.5C14 48.0523 14.4477 48.5 15 48.5Z"/>
</mask>
<path d="M14 47.5C14 46.9477 14.4477 46.5 15 46.5V50.5C16.6569 50.5 18 49.1569 18 47.5H14ZM15 46.5C15.5523 46.5 16 46.9477 16 47.5H12C12 49.1569 13.3431 50.5 15 50.5V46.5ZM16 47.5C16 48.0523 15.5523 48.5 15 48.5V44.5C13.3431 44.5 12 45.8431 12 47.5H16ZM15 48.5C14.4477 48.5 14 48.0523 14 47.5H18C18 45.8431 16.6569 44.5 15 44.5V48.5Z" fill="#5C9506" mask="url(#path-46-inside-23)"/>
<mask id="path-48-inside-24" fill="white">
<path d="M22 48.5C22.5523 48.5 23 48.0523 23 47.5C23 46.9477 22.5523 46.5 22 46.5C21.4477 46.5 21 46.9477 21 47.5C21 48.0523 21.4477 48.5 22 48.5Z"/>
</mask>
<path d="M21 47.5C21 46.9477 21.4477 46.5 22 46.5V50.5C23.6569 50.5 25 49.1569 25 47.5H21ZM22 46.5C22.5523 46.5 23 46.9477 23 47.5H19C19 49.1569 20.3431 50.5 22 50.5V46.5ZM23 47.5C23 48.0523 22.5523 48.5 22 48.5V44.5C20.3431 44.5 19 45.8431 19 47.5H23ZM22 48.5C21.4477 48.5 21 48.0523 21 47.5H25C25 45.8431 23.6569 44.5 22 44.5V48.5Z" fill="#5C9506" mask="url(#path-48-inside-24)"/>
<mask id="path-50-inside-25" fill="white">
<path d="M29 48.5C29.5523 48.5 30 48.0523 30 47.5C30 46.9477 29.5523 46.5 29 46.5C28.4477 46.5 28 46.9477 28 47.5C28 48.0523 28.4477 48.5 29 48.5Z"/>
</mask>
<path d="M28 47.5C28 46.9477 28.4477 46.5 29 46.5V50.5C30.6569 50.5 32 49.1569 32 47.5H28ZM29 46.5C29.5523 46.5 30 46.9477 30 47.5H26C26 49.1569 27.3431 50.5 29 50.5V46.5ZM30 47.5C30 48.0523 29.5523 48.5 29 48.5V44.5C27.3431 44.5 26 45.8431 26 47.5H30ZM29 48.5C28.4477 48.5 28 48.0523 28 47.5H32C32 45.8431 30.6569 44.5 29 44.5V48.5Z" fill="#5C9506" mask="url(#path-50-inside-25)"/>
<mask id="path-52-inside-26" fill="white">
<path d="M36 48.5C36.5523 48.5 37 48.0523 37 47.5C37 46.9477 36.5523 46.5 36 46.5C35.4477 46.5 35 46.9477 35 47.5C35 48.0523 35.4477 48.5 36 48.5Z"/>
</mask>
<path d="M35 47.5C35 46.9477 35.4477 46.5 36 46.5V50.5C37.6569 50.5 39 49.1569 39 47.5H35ZM36 46.5C36.5523 46.5 37 46.9477 37 47.5H33C33 49.1569 34.3431 50.5 36 50.5V46.5ZM37 47.5C37 48.0523 36.5523 48.5 36 48.5V44.5C34.3431 44.5 33 45.8431 33 47.5H37ZM36 48.5C35.4477 48.5 35 48.0523 35 47.5H39C39 45.8431 37.6569 44.5 36 44.5V48.5Z" fill="#5C9506" mask="url(#path-52-inside-26)"/>
</svg>
