<svg width="56" height="56" viewBox="0 0 56 56" fill="none" xmlns="http://www.w3.org/2000/svg">
<path d="M32.3784 18.9167L24.4861 24.6562C24.0717 24.9566 23.9799 25.537 24.2813 25.9504C24.462 26.2008 24.7448 26.3324 25.0322 26.3324C25.2213 26.3324 25.4114 26.274 25.5764 26.1553L36.8052 17.9896L25.5764 9.8229C25.1611 9.5216 24.5816 9.61245 24.2822 10.0278C23.9809 10.4413 24.0717 11.0216 24.4871 11.322L32.3784 17.0625H21.3229C14.6776 17.0625 9.27084 22.4692 9.27084 29.1146C9.27084 29.6273 9.68525 30.0417 10.1979 30.0417C10.7106 30.0417 11.125 29.6273 11.125 29.1146C11.125 23.4918 15.7002 18.9167 21.3229 18.9167H32.3784Z" fill="#5C9506"/>
<path d="M27.8125 0.375C12.4767 0.375 0 12.8517 0 28.1875C0 43.5233 12.4767 56 27.8125 56C43.1483 56 55.625 43.5233 55.625 28.1875C55.625 12.8517 43.1483 0.375 27.8125 0.375ZM27.8125 54.1458C13.4993 54.1458 1.85417 42.5007 1.85417 28.1875C1.85417 13.8743 13.4993 2.22917 27.8125 2.22917C42.1257 2.22917 53.7708 13.8743 53.7708 28.1875C53.7708 42.5007 42.1257 54.1458 27.8125 54.1458Z" fill="#5C9506"/>
<path d="M44.5 26.3333C43.9873 26.3333 43.5729 26.7477 43.5729 27.2604C43.5729 32.8832 38.9978 37.4583 33.375 37.4583H22.3195L30.2118 31.7188C30.6262 31.4184 30.718 30.838 30.4167 30.4246C30.1163 30.0102 29.5369 29.9184 29.1225 30.2197L17.8927 38.3854L29.1215 46.5521C29.2866 46.6717 29.4766 46.7292 29.6657 46.7292C29.9531 46.7292 30.235 46.5966 30.4167 46.3472C30.718 45.9337 30.6271 45.3534 30.2118 45.053L22.3195 39.3125H33.375C40.0203 39.3125 45.4271 33.9058 45.4271 27.2604C45.4271 26.7477 45.0127 26.3333 44.5 26.3333Z" fill="#5C9506"/>
</svg>
