<svg width="55" height="51" viewBox="0 0 55 51" fill="none" xmlns="http://www.w3.org/2000/svg">
<path d="M27.4669 9.74412L27.4186 9.62951L27.4184 9.62909C25.2154 4.41425 20.5306 1.10578 15.1565 1.10578C7.84376 1.10578 2.17149 7.20443 1.44108 15.2877L1.42955 15.3653L1.42538 15.3934L1.42281 15.4217C1.42624 15.3839 1.3401 15.9142 1.35795 16.8276C1.37574 17.7374 1.49389 19.0425 1.88346 20.6916L27.4669 9.74412ZM27.4669 9.74412L27.5153 9.62951L27.5154 9.62926C29.6939 4.46958 34.6202 1.10683 40.091 1.10683C47.4064 1.10683 53.0758 7.20952 53.82 15.3869C53.8252 15.4199 53.8451 15.5643 53.8611 15.7655C53.881 16.016 53.8973 16.372 53.8884 16.8273C53.8708 17.7381 53.7526 19.0436 53.363 20.6928C52.2782 25.2921 49.766 29.4696 46.1226 32.77L46.117 32.7751L46.117 32.775L28.1379 48.8158L27.4665 49.4148L26.8001 48.8101L9.13012 32.7741L27.4669 9.74412ZM53.9103 15.2689L53.9134 15.3028L53.9188 15.3363C53.9625 15.6099 54.221 17.5219 53.4666 20.7152L53.4665 20.7155C52.3804 25.3186 49.87 29.5157 46.1916 32.8507C46.1906 32.8517 46.1895 32.8526 46.1885 32.8536L27.4652 49.5567L9.05849 32.8529L9.05792 32.8524C5.37794 29.518 2.86637 25.3189 1.77999 20.7154L1.77995 20.7152C1.02535 17.5203 1.28432 15.6089 1.32839 15.3379L1.33407 15.303L1.33726 15.2677C2.09826 6.8807 7.98379 1 15.1565 1C19.8869 1 24.1267 3.52854 26.6088 7.7758L27.4627 9.23702L28.3307 7.78408C30.8316 3.5975 35.2648 1.00105 40.09 1.00105C47.2637 1.00105 53.1483 6.88171 53.9103 15.2689ZM1.88349 20.6917C2.96937 25.2909 5.48026 29.467 9.12951 32.7736L1.88349 20.6917Z" stroke="#5C9506" stroke-width="2"/>
<path d="M7.56602 16.9283C7.56602 11.675 11.8416 7.39944 17.0949 7.39944C17.1245 7.39944 17.1478 7.42302 17.1478 7.45233C17.1478 7.4823 17.1249 7.50522 17.0949 7.50522C11.8983 7.50522 7.6718 11.7318 7.6718 16.9283C7.6718 16.9583 7.64888 16.9812 7.61891 16.9812C7.58895 16.9812 7.56602 16.9583 7.56602 16.9283Z" stroke="#5C9506" stroke-width="2"/>
</svg>
