<svg width="59" height="62" viewBox="0 0 59 62" fill="none" xmlns="http://www.w3.org/2000/svg">
<path d="M29.1147 37.5849L29.1142 37.5844C28.5625 37.0327 28.2806 36.271 28.3413 35.4915C28.4019 34.7129 28.7983 34.0039 29.4295 33.5442C29.4299 33.544 29.4302 33.5437 29.4306 33.5434L42.7461 23.9101C42.7462 23.9101 42.7463 23.91 42.7464 23.9099C42.7516 23.9062 42.7577 23.9042 42.766 23.9048C42.7703 23.9052 42.7741 23.9062 42.777 23.9076C42.7794 23.9087 42.7821 23.9103 42.7852 23.9133C42.7955 23.9241 42.796 23.9396 42.7885 23.9501C42.7885 23.9501 42.7885 23.9501 42.7885 23.9502L33.1572 37.2651C33.157 37.2654 33.1568 37.2656 33.1565 37.2659C32.6948 37.9003 31.9863 38.2962 31.2087 38.3572C31.1332 38.3628 31.0632 38.3656 30.9967 38.3656C30.293 38.3656 29.6168 38.0877 29.1147 37.5849ZM29.465 33.5892L29.4625 33.5911C28.8481 34.0385 28.4576 34.7342 28.3988 35.4968C28.3391 36.2581 28.6164 37.0048 29.1526 37.5428L29.1537 37.5439C29.7019 38.092 30.4479 38.3495 31.189 38.3006L31.189 38.3007L31.2018 38.2997C31.9629 38.2398 32.6588 37.851 33.1088 37.2328L33.1104 37.2305L38.9861 29.1078L37.5897 27.7115L29.465 33.5892Z" stroke="#5C9506" stroke-width="2"/>
<path d="M53.4181 20.8157L53.4307 20.8341L53.4447 20.8635L53.4643 20.8975C55.7287 24.8252 57.0303 29.3719 57.0303 34.2215C57.0303 39.0711 55.7287 43.6177 53.4634 47.5453L53.4437 47.5794L53.4268 47.6149C53.4253 47.618 53.4239 47.621 53.4225 47.6239L53.4042 47.65L53.3829 47.6864C51.0429 51.69 47.6945 55.0344 43.6879 57.3695L43.6567 57.3877L43.6268 57.4082C43.6246 57.4097 43.6224 57.4112 43.6202 57.4127L43.5874 57.4275L43.5451 57.4518C39.6755 59.6752 35.204 60.9622 30.4363 60.9949C30.423 60.995 30.41 60.9953 30.3974 60.9959H30.3908L30.3806 60.9961C30.3114 60.9975 30.2961 60.9986 30.2866 60.9992C30.2792 60.9997 30.2753 61 30.2518 61C28.2466 61 26.2241 60.77 24.2437 60.3136L24.242 60.3132C24.2367 60.312 24.2342 60.3105 24.2324 60.3092C24.23 60.3075 24.2271 60.3047 24.2246 60.3006C24.2221 60.2966 24.2208 60.2929 24.2203 60.2901C24.22 60.2881 24.2197 60.2853 24.2209 60.2801L24.2213 60.2784C24.2226 60.2726 24.2245 60.2692 24.2264 60.2666C24.2287 60.2634 24.2319 60.2603 24.2357 60.258C24.2394 60.2556 24.242 60.255 24.2427 60.2549L24.2431 60.2548L24.2437 60.2549L24.2458 60.2553L24.2458 60.2553L24.2553 60.2575C25.9433 60.645 27.6551 60.8584 29.3583 60.9171L30.3927 60.9527V59.9177V57.8847C30.3927 57.868 30.4049 57.8558 30.4216 57.8558C30.4382 57.8558 30.4504 57.868 30.4504 57.8847V59.9094V60.9565L31.4964 60.9084C35.5168 60.7234 39.3062 59.6435 42.6744 57.8669L43.5936 57.3821L43.0738 56.4822L42.0594 54.726L42.0587 54.7248C42.0559 54.7199 42.0553 54.7171 42.0551 54.7152C42.0547 54.7125 42.0548 54.7087 42.056 54.7044C42.0572 54.7 42.059 54.6966 42.0607 54.6943C42.062 54.6925 42.0642 54.6902 42.0693 54.6872L42.073 54.6851C42.0769 54.6828 42.0791 54.6823 42.0808 54.6821C42.0831 54.6818 42.0868 54.6819 42.0912 54.6831C42.0957 54.6843 42.0992 54.6861 42.1017 54.688C42.1036 54.6894 42.1062 54.6918 42.1093 54.6972L42.1093 54.6972L43.1207 56.4493L43.6419 57.3524L44.5224 56.7939C47.866 54.6727 50.7061 51.8326 52.8273 48.489L53.3858 47.6085L52.4828 47.0873L50.7308 46.076C50.7174 46.0683 50.712 46.0509 50.7206 46.0359L50.7211 46.0351C50.724 46.03 50.7262 46.0282 50.7275 46.0272C50.7295 46.0257 50.7326 46.024 50.7369 46.0228C50.7412 46.0217 50.7452 46.0215 50.7483 46.0219C50.7508 46.0222 50.7542 46.023 50.7594 46.026C50.7594 46.026 50.7595 46.026 50.7595 46.0261L52.5156 47.0404L53.4156 47.5603L53.9004 46.6409C55.7017 43.2242 56.7848 39.3729 56.9462 35.2888L56.9872 34.2493H55.9469H53.915C53.8983 34.2493 53.8862 34.2371 53.8862 34.2205C53.8862 34.2038 53.8983 34.1916 53.915 34.1916H55.9469H56.9872L56.9462 33.1521C56.7848 29.0681 55.7017 25.2167 53.9004 21.8001L53.4156 20.8806L52.5156 21.4005L50.7594 22.4149L50.7581 22.4157C50.7569 22.4164 50.7558 22.4169 50.755 22.4173C50.7541 22.4176 50.7534 22.4178 50.7528 22.418C50.7515 22.4183 50.7493 22.4187 50.7462 22.4187C50.7403 22.4187 50.7346 22.4171 50.7303 22.4147C50.7295 22.4142 50.7287 22.4137 50.728 22.4132C50.727 22.4125 50.7262 22.4118 50.7254 22.411C50.7241 22.4098 50.7221 22.4076 50.7197 22.4034C50.7114 22.3887 50.7167 22.372 50.7293 22.3646C50.7294 22.3646 50.7294 22.3645 50.7295 22.3645L52.4807 21.3537L53.3838 20.8324L52.8252 19.9519C50.7041 16.6083 47.864 13.7682 44.5204 11.6471L43.6399 11.0885L43.1186 11.9916L42.1073 13.7437L42.1069 13.7443C42.1049 13.7478 42.1032 13.7496 42.1023 13.7505C42.1012 13.7516 42.0999 13.7527 42.0979 13.7538C42.0935 13.7563 42.0874 13.758 42.0813 13.758C42.0782 13.758 42.0761 13.7576 42.0747 13.7573C42.0735 13.7569 42.0719 13.7564 42.0694 13.755L42.068 13.7541C42.0547 13.7464 42.0492 13.7291 42.0579 13.714L43.0718 11.9587L43.5915 11.0588L42.6724 10.574C39.3041 8.79744 35.5148 7.71749 31.4943 7.53255L30.4483 7.48444V8.5315V10.5583C30.4483 10.575 30.4362 10.5871 30.4195 10.5871C30.4028 10.5871 30.3907 10.575 30.3907 10.5583V8.52429V7.47554L29.3431 7.52543C29.0321 7.54024 28.7119 7.55932 28.364 7.58583L28.3629 7.58592L27.259 7.67131L27.2404 7.67275L27.2219 7.67487C26.2274 7.78917 25.2351 7.959 24.2524 8.18439L24.2524 8.18439L24.2496 8.18503C24.2449 8.18613 24.2425 8.18587 24.241 8.18559C24.2387 8.18518 24.2351 8.18406 24.2312 8.18157C24.2272 8.17907 24.2243 8.17615 24.2225 8.17361C24.221 8.17166 24.2195 8.16894 24.2182 8.16356L24.2178 8.16184C24.2166 8.15664 24.2169 8.15383 24.2173 8.15182C24.2177 8.14909 24.219 8.14535 24.2215 8.14132C24.224 8.13728 24.2269 8.13446 24.2293 8.13275C24.2311 8.13146 24.2336 8.12994 24.2389 8.12874L24.2392 8.12868C25.295 7.88701 26.3648 7.71221 27.4389 7.59784L28.333 7.50263V6.60346V5.41413V4.41413H27.333H25.7898C24.9233 4.41413 24.2177 3.70852 24.2177 2.84204C24.2177 1.97557 24.9233 1.26996 25.7898 1.26996H35.0493C35.9163 1.26996 36.6224 1.97609 36.6224 2.84204C36.6224 3.70852 35.9168 4.41413 35.0503 4.41413H33.507H32.507V5.41413V6.63947V7.52893L33.3904 7.63265C37.0641 8.06397 40.5095 9.24076 43.577 11.0081L43.5945 11.0181L43.6123 11.0275C43.6199 11.0315 43.6275 11.0353 43.635 11.039L43.6588 11.0553L43.6901 11.0735C45.4112 12.0765 47.0103 13.2639 48.4606 14.611L49.1666 15.2668L49.8481 14.5856L52.0581 12.3767L52.7655 11.6696L52.0582 10.9623L51.3096 10.2137L54.2606 7.26346L57.2109 10.2137L54.2606 13.1647L53.513 12.4171L52.8061 11.7102L52.099 12.4169L49.889 14.6258L49.2072 15.3074L49.8633 16.0137C51.2101 17.4636 52.3967 19.0638 53.3999 20.7845L53.4181 20.8157ZM44.0433 58.3188C44.0558 58.3132 44.0685 58.3087 44.0813 58.3042C44.1012 58.2971 44.1212 58.29 44.14 58.2787C44.151 58.2721 44.1594 58.2635 44.1677 58.2548C44.175 58.2473 44.1824 58.2397 44.1915 58.2335C48.3469 55.8116 51.8193 52.3434 54.2463 48.191L44.0433 58.3188ZM23.2434 8.38643C23.3699 8.93994 23.9224 9.28769 24.4759 9.15909C25.4225 8.942 26.3782 8.77842 27.3361 8.66833L23.2434 8.38643ZM53.3488 20.6024C53.3487 20.6019 53.3487 20.6019 53.3488 20.6024L53.3488 20.6024ZM54.9668 8.05176L54.2599 7.34491L53.5528 8.05151L52.097 9.50628L51.3894 10.2134L52.0968 10.9207L53.5526 12.3765L54.2599 13.0839L54.967 12.3763L56.4218 10.9205L57.1284 10.2134L56.4215 9.50653L54.9668 8.05176ZM28.3907 6.46457V7.5071L29.4323 7.4637C29.5007 7.46085 29.5425 7.46047 29.5945 7.46C29.638 7.45961 29.6886 7.45915 29.7677 7.45713C29.8908 7.45484 29.9647 7.45152 30.0281 7.44867C30.0963 7.44561 30.1524 7.44309 30.2447 7.44297L30.2504 7.44319L30.2797 7.44425C30.2925 7.44463 30.3095 7.44502 30.329 7.44502C30.3476 7.44502 30.3641 7.44469 30.3766 7.44438L30.4076 7.44344L30.4226 7.44296C30.7363 7.44301 31.0634 7.44989 31.4081 7.46376L32.4483 7.50561V6.46457V4.35646H35.0493C35.8845 4.35646 36.5637 3.67726 36.5637 2.84204C36.5637 2.00683 35.8845 1.32763 35.0493 1.32763H25.7898C24.9545 1.32763 24.2753 2.00683 24.2753 2.84204C24.2753 3.67726 24.9545 4.35646 25.7898 4.35646H28.3907V6.46457ZM43.4498 10.8821L43.4498 10.8822L43.4498 10.8821Z" stroke="#5C9506" stroke-width="2"/>
<path d="M16.0158 15.6736H21.16C21.1767 15.6736 21.1888 15.6858 21.1888 15.7024C21.1888 15.7191 21.1767 15.7313 21.16 15.7313H16.0158C15.9992 15.7313 15.987 15.7191 15.987 15.7024C15.987 15.6858 15.9992 15.6736 16.0158 15.6736Z" stroke="#5C9506" stroke-width="2"/>
<path d="M10.8717 22.8755H21.16C21.1767 22.8755 21.1888 22.8876 21.1888 22.9043C21.1888 22.921 21.1767 22.9331 21.16 22.9331H10.8717C10.855 22.9331 10.8428 22.921 10.8428 22.9043C10.8428 22.8876 10.855 22.8755 10.8717 22.8755Z" stroke="#5C9506" stroke-width="2"/>
<path d="M5.72749 30.0773H21.16C21.1767 30.0773 21.1888 30.0895 21.1888 30.1061C21.1888 30.1228 21.1767 30.135 21.16 30.135H5.72749C5.71083 30.135 5.69865 30.1228 5.69865 30.1061C5.69865 30.0895 5.71083 30.0773 5.72749 30.0773Z" stroke="#5C9506" stroke-width="2"/>
<path d="M1.61215 37.2791H21.16C21.1767 37.2791 21.1888 37.2913 21.1888 37.308C21.1888 37.3246 21.1767 37.3368 21.16 37.3368H1.61215C1.59549 37.3368 1.58331 37.3246 1.58331 37.308C1.58331 37.2913 1.59549 37.2791 1.61215 37.2791Z" stroke="#5C9506" stroke-width="2"/>
<path d="M7.78515 44.481H21.16C21.1767 44.481 21.1888 44.4932 21.1888 44.5098C21.1888 44.5265 21.1767 44.5387 21.16 44.5387H7.78515C7.76849 44.5387 7.75632 44.5265 7.75632 44.5098C7.75632 44.4932 7.76849 44.481 7.78515 44.481Z" stroke="#5C9506" stroke-width="2"/>
<path d="M13.9582 51.6828H21.16C21.1767 51.6828 21.1888 51.695 21.1888 51.7116C21.1888 51.7283 21.1767 51.7405 21.16 51.7405H13.9582C13.9415 51.7405 13.9293 51.7283 13.9293 51.7116C13.9293 51.695 13.9415 51.6828 13.9582 51.6828Z" stroke="#5C9506" stroke-width="2"/>
</svg>
