<svg width="59" height="54" viewBox="0 0 59 54" fill="none" xmlns="http://www.w3.org/2000/svg">
<path d="M54.6612 43.0319L45.2027 38.9351C44.9801 38.8238 44.7333 38.5518 44.5214 38.1889L50.8364 38.1841C50.9467 38.1947 53.5502 38.4328 55.6377 37.5356C56.4285 37.1949 57.0169 36.5223 57.253 35.69C57.4911 34.8499 57.3401 33.9605 56.8407 33.2482C55.0358 30.6796 50.8228 23.9678 50.6912 17.1601C50.6883 17.043 50.307 5.46595 38.8741 5.37207C37.1911 5.38562 35.6349 5.67113 34.2189 6.19762C33.9102 5.41078 33.4553 4.59007 32.7788 3.81775C30.7919 1.54918 27.5661 0.399414 23.1906 0.399414C18.8151 0.399414 15.5894 1.54918 13.6015 3.81582C11.3097 6.4299 11.5226 9.59951 11.5768 10.1308V15.2787C10.9574 15.9842 10.609 16.8872 10.609 17.8192V21.6905C10.609 22.8683 11.1442 23.9668 12.0578 24.6994C12.9443 28.2097 14.7996 30.8548 15.4481 31.7035V34.9061C15.4481 35.8429 14.9371 36.7023 14.1154 37.1514L5.48147 41.8608C2.67383 43.3938 0.930786 46.3302 0.930786 49.5279V53.6295H43.5148H45.4505H59V50.0515C59 47.059 57.3372 44.3704 54.6612 43.0319ZM43.5148 51.6938H2.86643V49.5279C2.86643 47.0396 4.22331 44.7526 6.40768 43.5622L15.0416 38.8528C16.4865 38.064 17.3837 36.5513 17.3837 34.907V31.0174L17.1582 30.7483C17.135 30.7202 14.7629 27.8506 13.858 23.9107L13.7699 23.5274L13.4399 23.3145C12.8795 22.9525 12.5446 22.3457 12.5446 21.6914V17.8202C12.5446 17.2772 12.775 16.771 13.1931 16.3926L13.5124 16.1052V10.0776L13.5037 9.95083C13.5008 9.92469 13.1718 7.2419 15.0571 5.0914C16.6608 3.26222 19.3977 2.33505 23.1906 2.33505C26.97 2.33505 29.7012 3.25545 31.3068 5.07205C32.1052 5.97405 32.5069 6.98155 32.7072 7.84679C32.7227 7.91453 32.7372 7.98131 32.7508 8.04809C32.7643 8.11681 32.7788 8.18552 32.7895 8.25133C32.802 8.32682 32.8127 8.39844 32.8233 8.47006C32.8311 8.52136 32.8388 8.57362 32.8446 8.62298C32.8591 8.74299 32.8708 8.85912 32.8785 8.96655C32.8795 8.97526 32.8795 8.98301 32.8795 8.99172C32.8862 9.09624 32.8911 9.19496 32.894 9.28496C32.894 9.30239 32.894 9.3169 32.895 9.33432C32.8969 9.41465 32.8969 9.49111 32.8959 9.55789C32.8959 9.56757 32.8959 9.57725 32.8959 9.58692C32.8921 9.81436 32.8766 9.94986 32.8766 9.95276L32.8688 16.1052L33.1882 16.3936C33.6063 16.771 33.8366 17.2772 33.8366 17.8202V21.6914C33.8366 22.5364 33.2831 23.2758 32.4604 23.5293L31.9784 23.6774L31.8236 24.1565C31.1761 26.1705 30.2538 28.0307 29.0808 29.6856C28.7933 30.0931 28.5136 30.4541 28.2707 30.7299L28.0297 31.0048V34.997C28.0297 35.2419 28.0539 35.4819 28.0917 35.7181C28.0994 35.7684 28.113 35.8168 28.1226 35.8671C28.1604 36.0616 28.2107 36.2523 28.2727 36.4381C28.2872 36.4817 28.3027 36.5233 28.3191 36.5668C28.3946 36.7691 28.4827 36.9646 28.5853 37.1524C28.5969 37.1736 28.6075 37.1959 28.6191 37.2172C28.7595 37.465 28.9211 37.7001 29.1069 37.9169L29.3276 38.1889H29.3653C29.6973 38.516 30.0786 38.8006 30.5122 39.0173L39.7578 43.6397C42.0757 44.7972 43.5148 47.1257 43.5148 49.7166V51.6938ZM57.0643 51.6938H45.4505V49.7166C45.4505 46.3883 43.601 43.3967 40.6249 41.9082L33.9876 38.5886C34.1512 38.215 34.1725 37.7873 34.0292 37.375C33.7921 36.6926 33.1727 36.2523 32.4517 36.2523H30.306C30.2615 36.1739 30.2325 36.0878 30.1967 36.0045C30.1483 35.8932 30.0912 35.7839 30.0592 35.6668C30.0002 35.4519 29.9654 35.2274 29.9654 34.997V31.7248C30.187 31.4538 30.4202 31.1451 30.6612 30.8044C31.8604 29.1107 32.8214 27.2254 33.5202 25.192C34.8858 24.5659 35.7723 23.2158 35.7723 21.6914V17.8202C35.7723 16.8882 35.4239 15.9852 34.8045 15.2796V10.1318C34.8296 9.88985 34.8838 9.09721 34.7232 8.06164C35.9697 7.57192 37.3663 7.31932 38.8751 7.30674C48.3994 7.38514 48.7469 16.802 48.7566 17.1988C48.8988 24.5378 53.3498 31.6455 55.2574 34.3602C55.421 34.5925 55.4703 34.8848 55.3919 35.1606C55.3474 35.3193 55.2197 35.6077 54.8741 35.7558C53.2482 36.4555 51.0425 36.2571 50.9293 36.2523H44.2678C43.6455 36.2523 43.0784 36.5688 42.7503 37.0982C42.4231 37.6256 42.3922 38.2702 42.667 38.8238C42.97 39.4345 43.5052 40.2504 44.3849 40.6888L53.8182 44.7749C55.8207 45.7863 57.0643 47.8051 57.0643 50.0515V51.6938Z" fill="#5C9506"/>
</svg>
